<?xml version="1.0" encoding="UTF-8" standalone="no"?>

<svg
    version="1.1"
    id="svg1"
    width="1920.0275"
    height="794.81824"
    viewBox="0 0 1920.0275 794.81824"
    xml:space="preserve"
    xmlns="http://www.w3.org/2000/svg"
    xmlns:svg="http://www.w3.org/2000/svg">
    <defs id="defs1" />
    <g
        id="layer1"
        transform="translate(680.39599,-1245.3895)"
    >
        <g
            id="use22"
            transform="matrix(10.114353,0,0,10.114353,-883.43096,-71.221434)"
            style="stroke-width:0.37368"
        >
            <path
                style="fill:none;fill-opacity:1;stroke:#000000;stroke-width:2.5;stroke-linecap:butt;stroke-linejoin:round;stroke-opacity:1;paint-order:stroke fill markers"
                d="m 870.97971,270.1727 530.62179,2.18309"
                id="path25"
                transform="matrix(0.26458333,0,0,0.26458333,-160.93585,119.91993)"
            />
            <path
                style="fill:#680a66;fill-opacity:1;stroke-width:0.162855"
                d="M 70.690343,184.04105 C 69.778971,182.98659 66.90554,178.77 66.90554,178.77 c -0.08213,3.20464 -11.697089,4.69661 -12.329326,11.07301 0.99242,1.66148 6.28353,2.64449 6.28353,2.64449 1.263669,-6.41078 10.367502,-2.584 9.830599,-8.44645 z"
                id="path26"
            />
            <path
                style="fill:#680a66;fill-opacity:1;stroke-width:0.271161"
                d="m 44.885556,148.16447 c -1.514296,1.33828 -6.164328,2.91959 -6.164328,2.91959 0,0 -1.252186,-0.22622 -2.414214,-1.10873 3.201044,-0.24028 1.600995,-4.344 -16.069427,-6.35216 -0.966159,-5.11864 2.661426,-8.96567 2.661426,-8.96567 4.296447,6.70944 24.270935,2.58876 21.986543,13.50697 z"
                id="path27"
            />
            <path
                id="path28"
                style="fill:#680a66;fill-opacity:1;stroke-width:0.183673"
                d="m 25.516504,159.12501 c -0.872303,2.17343 4.17491,4.02758 6.226606,4.40006 4.459713,0.61893 9.274473,0.54035 13.153186,-2.23201 -1.389102,-2.98159 -9.026571,-3.36511 -11.886837,-3.45028 -5.276333,-0.1739 1.874061,-1.59333 0.956088,-1.88278 -3.653051,-1.20948 -6.116857,0.032 -8.449043,3.16501 z" /><path
                style="fill:#680a66;fill-opacity:1;stroke-width:0.271161"
                d="m 25.495143,172.37635 c 2.092128,-1.76998 5.284957,-3.53976 5.284957,-3.53976 0,0 0.223153,0.96253 1.38518,1.84505 -0.901981,1.05195 -2.776184,3.68546 2.939897,5.40285 5.716082,1.71738 17.354945,2.37423 19.803228,0.73844 2.013237,3.23369 3.653343,7.25329 3.653343,7.25329 -6.365843,-0.56352 -35.335089,-0.8577 -33.066605,-11.69987 z"
                id="path29"
            />
            <path
                d="m 23.126486,188.37499 v -0.81516 h 1.011226 c 4.252336,0 6.378504,-1.95639 6.378504,-5.86915 v -45.1599 c 0,-3.69539 -2.126168,-5.54309 -6.378504,-5.54309 h -1.011226 v -0.81516 h 24.394833 c 6.741504,0 11.74578,1.33143 15.012814,3.99429 3.318902,2.60851 4.978348,6.35825 4.978348,11.24921 0,3.15196 -0.622293,5.76047 -1.866881,7.82554 -1.192728,2.01073 -2.74846,3.58671 -4.667198,4.72793 -1.866874,1.14123 -3.811541,2.01073 -5.833997,2.60852 l 10.967912,17.93353 c 2.126171,3.47802 3.811548,5.86915 5.056134,7.17341 1.244588,1.24991 2.489173,1.87487 3.733759,1.87487 h 0.233356 v 0.81516 h -1.08901 c -2.437313,0 -4.459765,-0.0815 -6.067354,-0.24455 -1.555735,-0.21737 -2.852181,-0.57061 -3.889337,-1.05971 -1.037153,-0.48909 -1.970592,-1.19556 -2.800313,-2.11941 -0.777868,-0.9782 -1.633521,-2.22811 -2.566963,-3.74974 L 46.743452,161.23015 h -8.37079 v 20.46053 c 0,3.91276 2.126167,5.86915 6.378506,5.86915 h 1.011228 v 0.81516 z m 24.161472,-27.96 c 4.304195,0 7.3638,-1.08688 9.178821,-3.26065 1.815021,-2.2281 2.722531,-5.95067 2.722531,-11.1677 0,-5.38005 -0.933435,-9.21131 -2.800317,-11.49376 -1.866881,-2.33679 -4.952415,-3.50519 -9.25661,-3.50519 h -8.759721 v 29.4273 z"
                id="path30"
                style="font-size:219.348px;font-family:'Noto Serif Display';-inkscape-font-specification:'Noto Serif Display';fill:#191919;fill-opacity:1;stroke-width:0.233289"
                aria-label="R"
            />
            <path
                style="fill:#c617b3;fill-opacity:1;stroke-width:0.271161"
                d="m 44.908909,148.12731 c -2.657119,1.61894 -4.135087,2.33922 -10.233681,0.88091 -4.971753,-1.18885 -5.112042,-1.12061 -5.938865,0.45555 -1.243164,2.36978 -3.375686,8.46252 -3.333208,10.10247 1.628333,-1.54192 2.710051,-2.49482 8.594176,-1.68677 8.137292,1.11746 7.499895,-0.20251 8.081992,-2.1865 0.582097,-1.98398 1.646069,-4.94061 2.829586,-7.56566 z"
                id="path31"
            />
            <path
                style="fill:#c617b3;fill-opacity:1;stroke-width:0.271161"
                d="m 44.908909,161.27758 c -2.657119,1.61893 -4.135087,2.33921 -10.233681,0.88091 -4.971753,-1.18885 -5.112042,-1.12061 -5.938865,0.45555 -1.243164,2.36978 -3.375686,8.46252 -3.333208,10.10246 1.628333,-1.54191 2.631986,-2.64516 8.516111,-1.83712 8.137293,1.11746 7.57796,-0.0522 8.160057,-2.03614 0.582097,-1.98398 1.646069,-4.94061 2.829586,-7.56566 z"
                id="path32"
            />
            <path
                style="fill:#c617b3;fill-opacity:1;stroke-width:0.242118"
                d="m 70.744838,184.10416 c -2.74164,-1.25092 -0.985519,-1.74461 -7.278106,-0.61781 -5.129902,0.91861 -5.274655,0.86588 -6.127777,-0.35199 -1.282711,-1.83109 -3.243454,-5.34674 -2.655389,-6.56123 0.112024,-0.7585 1.931073,0.78425 8.003158,0.17474 5.724757,-0.57465 7.204501,-0.62532 7.805117,0.9077 0.600611,1.53299 -0.968168,4.42025 0.252997,6.44859 z"
                id="path33"
            />
            <path
                d="m 84.541871,147.74486 c -0.701582,0 -1.292388,-0.25673 -1.772417,-0.7702 -0.443104,-0.55625 -0.664657,-1.4976 -0.664657,-2.82407 0,-1.36923 0.221553,-2.31059 0.664657,-2.82405 0.480029,-0.51347 1.070835,-0.7702 1.772417,-0.7702 0.664656,0 1.236999,0.25673 1.717028,0.7702 0.48003,0.51346 0.720044,1.45482 0.720044,2.82405 0,1.32647 -0.240014,2.26782 -0.720044,2.82407 -0.480029,0.51347 -1.052372,0.7702 -1.717028,0.7702 z m -7.588159,40.56382 v -0.64182 h 0.720045 c 1.624715,0 2.787862,-0.38511 3.489444,-1.15531 0.701582,-0.77019 1.052373,-2.03247 1.052373,-3.78681 v -23.17015 c 0,-1.79713 -0.350791,-3.08081 -1.052373,-3.85101 -0.701582,-0.77019 -1.864729,-1.1553 -3.489444,-1.1553 h -0.166165 v -0.64182 h 9.914456 v 28.49736 c 0,1.88271 0.35079,3.23056 1.052372,4.04355 0.701581,0.813 1.86473,1.21949 3.489445,1.21949 h 0.720045 v 0.64182 z m 36.279138,0.64184 c -2.40014,0 -4.3018,-0.7916 -5.70497,-2.37478 -1.40316,-1.58318 -2.36322,-4.02215 -2.88017,-7.3169 h -0.11079 v 9.04984 H 94.400914 v -0.64182 h 0.443105 c 1.624716,0 2.787864,-0.38511 3.489445,-1.15531 0.701582,-0.77019 1.052372,-2.03247 1.052372,-3.78681 v -37.5472 c 0,-1.79713 -0.35079,-3.08081 -1.052372,-3.851 -0.701581,-0.7702 -1.864729,-1.15531 -3.489445,-1.15531 h -0.166165 v -0.64182 h 9.914456 v 11.80971 4.87793 c 0,2.09664 -0.0369,4.30028 -0.11078,6.61087 h 0.11078 c 0.51696,-3.25195 1.47702,-5.64811 2.88018,-7.18852 1.44009,-1.58318 3.39713,-2.37478 5.87113,-2.37478 7.34815,0 11.02223,5.92626 11.02223,17.77877 0,5.86208 -0.96007,10.31211 -2.88019,13.35012 -1.88319,3.038 -4.63414,4.55701 -8.25281,4.55701 z m -0.94159,-0.96276 c 2.40014,0 4.11717,-1.30506 5.15109,-3.91517 1.03391,-2.61011 1.55086,-6.97458 1.55086,-13.09339 0,-6.03322 -0.51695,-10.3335 -1.55086,-12.90084 -1.03392,-2.56732 -2.76942,-3.85098 -5.20649,-3.85098 -2.69555,0 -4.65259,1.41203 -5.87112,4.23609 -1.18162,2.82406 -1.77242,7.01736 -1.77242,12.57992 0,5.7337 0.62773,9.99119 1.88319,12.77247 1.29239,2.78127 3.23097,4.1719 5.81575,4.1719 z m 28.29649,0.96276 c -2.40014,0 -4.30179,-0.7916 -5.70496,-2.37478 -1.40317,-1.58318 -2.36322,-4.02215 -2.88017,-7.3169 h -0.11078 v 9.04984 h -10.13601 v -0.64182 h 0.44311 c 1.6247,0 2.78785,-0.38511 3.48944,-1.15531 0.70158,-0.77019 1.05237,-2.03247 1.05237,-3.78681 v -37.5472 c 0,-1.79713 -0.35079,-3.08081 -1.05237,-3.851 -0.70159,-0.7702 -1.86474,-1.15531 -3.48944,-1.15531 h -0.16616 v -0.64182 h 9.91445 v 11.80971 4.87793 c 0,2.09664 -0.0369,4.30028 -0.11078,6.61087 h 0.11078 c 0.51695,-3.25195 1.477,-5.64811 2.88017,-7.18852 1.44009,-1.58318 3.39713,-2.37478 5.87114,-2.37478 7.34813,0 11.02221,5.92626 11.02221,17.77877 0,5.86208 -0.96007,10.31211 -2.88018,13.35012 -1.88318,3.038 -4.63413,4.55701 -8.25282,4.55701 z m -0.94159,-0.96276 c 2.40015,0 4.11718,-1.30506 5.15109,-3.91517 1.03391,-2.61011 1.55086,-6.97458 1.55086,-13.09339 0,-6.03322 -0.51695,-10.3335 -1.55086,-12.90084 -1.03391,-2.56732 -2.7694,-3.85098 -5.20647,-3.85098 -2.69556,0 -4.6526,1.41203 -5.87114,4.23609 -1.1816,2.82406 -1.77241,7.01736 -1.77241,12.57992 0,5.7337 0.62773,9.99119 1.8832,12.77247 1.29238,2.78127 3.23095,4.1719 5.81573,4.1719 z m 27.32095,0.96276 c -3.98794,0 -7.12658,-1.47622 -9.41596,-4.42865 -2.28938,-2.95244 -3.43406,-7.44526 -3.43406,-13.47848 0,-5.99045 1.08931,-10.44049 3.2679,-13.35012 2.21552,-2.95243 5.46494,-4.42865 9.7483,-4.42865 3.98794,0 7.12658,1.47622 9.41596,4.42865 2.28937,2.90963 3.43405,7.35967 3.43405,13.35012 0,6.03322 -1.10776,10.52604 -3.32328,13.47848 -2.1786,2.95243 -5.40957,4.42865 -9.69291,4.42865 z m 0.11078,-0.64184 c 2.73248,0 4.67105,-1.32645 5.81575,-3.97936 1.14468,-2.65291 1.71702,-7.08155 1.71702,-13.28593 0,-6.16159 -0.59081,-10.54746 -1.77241,-13.15757 -1.1447,-2.65292 -3.08327,-3.97936 -5.81575,-3.97936 -2.69554,0 -4.63413,1.32644 -5.81574,3.97936 -1.14468,2.61011 -1.71702,6.99598 -1.71702,13.15757 0,6.20438 0.57234,10.63302 1.71702,13.28593 1.18161,2.65291 3.13866,3.97936 5.87113,3.97936 z m 10.1101,0 v -0.64182 h 0.4431 c 1.73549,0 2.91711,-0.42789 3.54484,-1.28368 0.66465,-0.85577 0.99697,-2.39616 0.99697,-4.62118 v -21.43722 c 0,-2.18223 -0.31386,-3.67984 -0.94159,-4.49282 -0.62772,-0.85579 -1.79087,-1.28368 -3.48944,-1.28368 h -0.27694 v -0.64182 h 9.85906 v 6.03322 h 0.11079 c 0.51695,-2.01108 1.23699,-3.48728 2.16012,-4.42864 0.92313,-0.94136 1.92012,-1.5404 2.99095,-1.79713 1.10776,-0.29953 2.12322,-0.44929 3.04635,-0.44929 3.28636,0 5.72343,1.00554 7.31121,3.01662 1.62472,1.96828 2.43708,5.15604 2.43708,9.5633 V 181.762 c 0,2.22502 0.2954,3.76541 0.88621,4.62118 0.59081,0.85579 1.6801,1.28368 3.26789,1.28368 h 0.27695 v 0.64182 h -9.63753 V 163.6623 c 0,-2.78127 -0.4431,-5.04907 -1.32931,-6.80341 -0.8862,-1.75434 -2.41861,-2.63151 -4.5972,-2.63151 -1.73549,0 -3.10174,0.53486 -4.09871,1.60458 -0.99699,1.06971 -1.71704,2.46035 -2.16014,4.1719 -0.40618,1.66877 -0.60927,3.42311 -0.60927,5.26303 V 181.762 c 0,2.22502 0.31387,3.76541 0.9416,4.62118 0.62773,0.85579 1.79088,1.28368 3.48945,1.28368 h 0.27693 v 0.64182 z"
                id="path34"
                style="-inkscape-font-specification:'Noto Serif Display';stroke-width:0.174679"
                aria-label="ibbon"
            />
            <text
                style="fill:#191919;font-size:4px;font-family:'BodoniModa', serif;"
                id="text35"
                x="51.541871"
                y="197.74486"
            >
                An embeddable programming language offering a new approach to realtime, data-oriented systems
            </text>
        </g>
    </g>
</svg>
